<svg width="25" height="27" viewBox="0 0 25 27" fill="none" xmlns="http://www.w3.org/2000/svg">
<path d="M4.83333 1L1 6V23.5C1 24.163 1.26925 24.7989 1.7485 25.2678C2.22776 25.7366 2.87778 26 3.55556 26H21.4444C22.1222 26 22.7722 25.7366 23.2515 25.2678C23.7308 24.7989 24 24.163 24 23.5V6L20.1667 1H4.83333Z" stroke="black" stroke-width="2" stroke-linecap="round" stroke-linejoin="round"/>
<path d="M1 6H24" stroke="black" stroke-width="2" stroke-linecap="round" stroke-linejoin="round"/>
<path d="M17.6111 11C17.6111 12.3261 17.0726 13.5979 16.1141 14.5355C15.1556 15.4732 13.8556 16 12.5 16C11.1445 16 9.84444 15.4732 8.88593 14.5355C7.92741 13.5979 7.38892 12.3261 7.38892 11" stroke="black" stroke-width="2" stroke-linecap="round" stroke-linejoin="round"/>
</svg>
