<svg width="160" height="50" viewBox="0 0 160 50" fill="none" xmlns="http://www.w3.org/2000/svg">
<path d="M0 49.5098V0.490194H7.24151V44.5378H25.8095V49.5098H0Z" fill="black"/>
<path d="M40.006 12.3249C40.006 8.54342 41.2129 5.55555 43.6267 3.36134C46.1025 1.12045 49.847 0 54.8603 0C59.8737 0 63.6182 1.12045 66.094 3.36134C68.5697 5.55555 69.8076 8.54342 69.8076 12.3249V37.6751C69.8076 41.4099 68.5697 44.3978 66.094 46.6387C63.6182 48.8796 59.8737 50 54.8603 50C49.847 50 46.1025 48.8796 43.6267 46.6387C41.2129 44.3978 40.006 41.4099 40.006 37.6751V12.3249ZM47.1546 37.9552C47.1546 40.1961 47.7736 41.9468 49.0114 43.2073C50.3112 44.4211 52.2608 45.028 54.8603 45.028C57.5218 45.028 59.4714 44.4211 60.7093 43.2073C61.9471 41.9468 62.5661 40.1961 62.5661 37.9552V12.0448C62.5661 9.80392 61.9471 8.07656 60.7093 6.86274C59.4714 5.60224 57.5218 4.97199 54.8603 4.97199C52.2608 4.97199 50.3112 5.60224 49.0114 6.86274C47.7736 8.07656 47.1546 9.80392 47.1546 12.0448V37.9552Z" fill="black"/>
<path d="M99.95 0C104.963 0 108.646 1.12045 110.998 3.36134C113.412 5.60224 114.619 8.5901 114.619 12.3249V16.5266H107.749V12.0448C107.749 9.80392 107.13 8.07656 105.892 6.86274C104.716 5.60224 102.797 4.97199 100.136 4.97199C97.5362 4.97199 95.6175 5.60224 94.3796 6.86274C93.1418 8.07656 92.5229 9.80392 92.5229 12.0448V37.9552C92.5229 40.1961 93.1418 41.9468 94.3796 43.2073C95.6175 44.4211 97.5362 45.028 100.136 45.028C102.797 45.028 104.716 44.4211 105.892 43.2073C107.13 41.9468 107.749 40.1961 107.749 37.9552V28.1513H101.064V23.2493H114.619V37.6751C114.619 41.4099 113.412 44.3978 110.998 46.6387C108.646 48.8796 104.963 50 99.95 50C94.9986 50 91.3159 48.8796 88.9021 46.6387C86.5502 44.3978 85.3742 41.4099 85.3742 37.6751V12.3249C85.3742 10.4575 85.6527 8.77684 86.2097 7.28291C86.8287 5.7423 87.7261 4.43511 88.9021 3.36134C90.14 2.28758 91.6563 1.47059 93.4513 0.910365C95.3081 0.303455 97.4743 0 99.95 0Z" fill="black"/>
<path d="M130.198 12.3249C130.198 8.54342 131.405 5.55555 133.819 3.36134C136.295 1.12045 140.039 0 145.053 0C150.066 0 153.811 1.12045 156.286 3.36134C158.762 5.55555 160 8.54342 160 12.3249V37.6751C160 41.4099 158.762 44.3978 156.286 46.6387C153.811 48.8796 150.066 50 145.053 50C140.039 50 136.295 48.8796 133.819 46.6387C131.405 44.3978 130.198 41.4099 130.198 37.6751V12.3249ZM137.347 37.9552C137.347 40.1961 137.966 41.9468 139.204 43.2073C140.504 44.4211 142.453 45.028 145.053 45.028C147.714 45.028 149.664 44.4211 150.902 43.2073C152.14 41.9468 152.758 40.1961 152.758 37.9552V12.0448C152.758 9.80392 152.14 8.07656 150.902 6.86274C149.664 5.60224 147.714 4.97199 145.053 4.97199C142.453 4.97199 140.504 5.60224 139.204 6.86274C137.966 8.07656 137.347 9.80392 137.347 12.0448V37.9552Z" fill="black"/>
</svg>
