<?xml version="1.0" standalone="no"?>
<!DOCTYPE svg PUBLIC "-//W3C//DTD SVG 20010904//EN"
 "http://www.w3.org/TR/2001/REC-SVG-20010904/DTD/svg10.dtd">
<svg version="1.0" xmlns="http://www.w3.org/2000/svg"
 width="2560.000000pt" height="2560.000000pt" viewBox="0 0 2560.000000 2560.000000"
 preserveAspectRatio="xMidYMid meet">
<metadata>
Created by potrace 1.14, written by Peter Selinger 2001-2017
</metadata>
<g transform="translate(0.000000,2560.000000) scale(0.100000,-0.100000)"
fill="#000000" stroke="none">
<path d="M8498 16794 c-3 -2 -40 -6 -84 -8 -43 -3 -79 -5 -79 -6 0 -1 -18 -3
-40 -5 -50 -3 -130 -13 -170 -21 -16 -3 -43 -7 -60 -9 -16 -2 -30 -4 -30 -5 0
-2 -20 -6 -65 -14 -19 -3 -50 -10 -67 -15 -18 -5 -33 -8 -33 -6 0 2 -18 -2
-39 -10 -22 -7 -42 -11 -45 -8 -3 4 -6 1 -6 -6 0 -7 -4 -9 -10 -6 -5 3 -16 3
-22 -2 -7 -4 -17 -8 -23 -9 -27 -5 -151 -48 -160 -55 -5 -5 -19 -9 -31 -9 -12
0 -27 -7 -34 -15 -7 -8 -19 -15 -27 -15 -13 0 -198 -92 -247 -123 -28 -17
-135 -93 -176 -125 -73 -56 -248 -242 -312 -333 -37 -51 -96 -150 -131 -219
-58 -113 -72 -146 -82 -188 -2 -8 -7 -21 -11 -30 -12 -29 -64 -214 -68 -247
-2 -11 -6 -33 -9 -50 -15 -72 -27 -188 -31 -291 -2 -45 -7 -87 -10 -93 -4 -6
-3 -11 1 -11 10 0 9 -53 -1 -69 -4 -5 -3 -12 2 -15 9 -5 9 -47 -1 -62 -3 -5
-2 -16 3 -23 4 -8 4 -26 0 -42 -5 -15 -6 -30 -2 -33 8 -9 8 -66 0 -66 -4 0 -4
-10 1 -22 5 -13 5 -32 1 -43 -4 -11 -5 -24 -3 -28 5 -9 7 -94 3 -112 -1 -5 -1
-12 0 -15 6 -16 4 -70 -3 -70 -5 0 -5 -5 -2 -11 10 -15 12 -69 3 -69 -4 0 -5
-6 -2 -14 9 -23 10 -137 1 -143 -4 -2 -4 -9 0 -16 10 -16 10 -58 1 -63 -5 -3
-5 -10 -1 -17 10 -16 10 -58 1 -63 -5 -3 -5 -10 -1 -17 10 -16 10 -58 1 -63
-5 -3 -5 -10 -1 -17 10 -16 10 -58 1 -63 -5 -3 -5 -10 -1 -17 10 -16 10 -58 1
-63 -5 -3 -5 -10 -1 -17 10 -16 10 -58 1 -63 -5 -3 -5 -10 -1 -17 10 -16 10
-58 1 -63 -5 -3 -5 -10 -1 -17 10 -16 10 -58 1 -63 -5 -3 -5 -10 -1 -17 10
-16 10 -58 1 -63 -5 -3 -5 -10 -1 -17 10 -16 10 -58 1 -63 -5 -3 -5 -10 -1
-17 10 -16 10 -58 1 -63 -5 -3 -5 -10 -1 -17 10 -16 10 -58 1 -63 -5 -3 -5
-10 -1 -17 10 -16 10 -58 1 -63 -5 -3 -5 -10 -1 -17 10 -16 10 -58 1 -63 -5
-3 -5 -10 -1 -17 9 -14 11 -57 3 -62 -6 -3 -5 -50 0 -50 6 0 4 -57 -2 -61 -5
-3 -4 -13 1 -21 5 -9 5 -29 1 -44 -5 -15 -6 -30 -2 -33 8 -9 8 -66 0 -66 -4 0
-4 -10 1 -22 5 -13 5 -32 1 -43 -4 -11 -4 -29 0 -40 4 -11 4 -29 0 -40 -4 -11
-5 -24 -2 -29 8 -14 8 -66 0 -66 -4 0 -4 -10 1 -22 5 -13 5 -32 1 -43 -4 -11
-4 -29 0 -40 4 -11 4 -29 0 -40 -4 -11 -5 -24 -2 -29 8 -14 8 -66 0 -66 -4 0
-4 -10 1 -22 5 -13 5 -32 1 -43 -4 -11 -4 -29 0 -40 4 -11 4 -29 0 -40 -4 -11
-5 -24 -2 -29 8 -14 8 -66 0 -66 -4 0 -4 -10 1 -22 5 -13 5 -32 1 -43 -4 -11
-4 -29 0 -40 4 -11 4 -29 0 -40 -4 -11 -5 -24 -2 -29 9 -15 8 -66 -1 -66 -5 0
-5 -4 -2 -10 9 -15 12 -81 4 -86 -5 -3 -4 -15 0 -27 5 -12 5 -32 0 -44 -5 -13
-5 -23 0 -23 5 0 5 -17 2 -37 -4 -21 -4 -49 -1 -63 4 -14 3 -33 -2 -42 -4 -9
-5 -19 0 -22 9 -5 8 -47 -1 -63 -4 -7 -3 -14 2 -17 6 -4 6 -18 1 -36 -5 -17
-5 -30 -2 -30 8 0 6 -74 -1 -94 -2 -6 -1 -20 3 -31 4 -11 3 -28 -2 -37 -5 -10
-5 -18 -1 -18 4 0 8 -16 8 -35 0 -19 -3 -35 -7 -35 -4 0 -4 -10 1 -22 5 -13 5
-33 0 -45 -5 -13 -5 -23 -1 -23 4 0 7 -37 8 -83 1 -75 9 -184 19 -247 2 -14 6
-41 10 -60 5 -35 31 -152 39 -180 3 -8 14 -44 24 -80 25 -84 85 -228 124 -299
18 -31 36 -65 42 -76 25 -45 45 -73 127 -180 68 -87 200 -223 264 -270 22 -17
42 -32 45 -35 3 -4 40 -29 83 -58 144 -95 404 -213 556 -252 33 -8 84 -22 136
-36 11 -3 31 -7 45 -9 14 -2 25 -4 25 -5 0 -1 7 -3 15 -5 33 -7 77 -15 110
-20 19 -3 49 -8 65 -11 17 -3 55 -7 85 -10 30 -3 66 -7 80 -10 63 -12 226 -18
475 -18 219 0 440 7 440 14 0 1 15 3 33 4 93 10 169 19 187 22 11 3 38 7 60
10 22 3 48 7 57 10 10 3 29 7 44 10 81 15 294 74 365 102 15 6 30 8 33 5 3 -4
6 -2 6 4 0 6 12 14 28 18 15 4 27 5 27 3 0 -1 15 7 33 20 17 13 32 21 32 18 0
-9 138 63 203 106 32 21 60 38 63 38 14 0 183 139 254 210 103 104 250 291
250 319 0 6 4 11 8 11 10 0 144 268 150 300 1 8 13 43 25 75 7 17 11 34 9 38
-1 4 2 16 7 25 5 9 18 62 30 117 21 101 26 128 38 220 10 74 9 4496 -1 4595
-5 47 -10 89 -13 93 -3 4 -6 24 -9 45 -2 20 -7 48 -10 62 -3 14 -7 32 -9 40
-2 8 -8 35 -15 60 -7 25 -13 52 -15 60 -17 86 -165 411 -197 431 -5 3 -10 10
-10 15 0 10 -87 131 -112 157 -10 9 -15 17 -12 17 4 0 -41 47 -99 104 -90 90
-281 246 -301 246 -3 0 -19 9 -34 20 -133 95 -471 225 -690 266 -14 3 -45 10
-70 15 -47 11 -116 22 -137 22 -7 0 -13 3 -13 6 0 3 -15 6 -32 6 -37 1 -166
13 -213 21 -36 6 -662 14 -667 8z m487 -798 c28 -2 68 -7 90 -10 22 -4 54 -9
70 -11 17 -3 45 -9 63 -14 17 -5 32 -8 32 -6 0 15 301 -109 308 -127 2 -4 9
-8 15 -8 25 0 210 -172 247 -229 8 -13 22 -33 31 -45 21 -29 90 -175 100 -211
39 -143 49 -188 56 -240 10 -75 11 -4511 1 -4580 -4 -27 -9 -66 -12 -86 -3
-20 -10 -49 -16 -65 -6 -16 -11 -31 -11 -34 3 -19 -74 -214 -94 -240 -6 -8
-24 -37 -39 -63 -43 -74 -220 -247 -254 -247 -6 0 -12 -4 -14 -9 -9 -24 -251
-117 -357 -136 -14 -3 -37 -7 -50 -10 -23 -4 -114 -16 -162 -20 -15 -1 -31 -5
-37 -9 -6 -3 -13 -2 -17 4 -4 6 -13 7 -23 2 -14 -6 -277 -9 -277 -2 0 1 -28 3
-62 6 -99 6 -273 38 -305 55 -10 5 -18 7 -18 4 0 -4 -33 7 -105 35 -161 62
-290 157 -385 284 -45 59 -140 240 -140 266 0 9 -5 21 -12 28 -7 7 -8 12 -4
12 5 0 3 7 -4 15 -7 8 -10 22 -6 30 3 8 1 15 -4 15 -6 0 -9 3 -8 8 1 7 -11 91
-19 127 -3 11 -7 38 -9 60 -8 67 -8 4414 -1 4499 11 116 55 303 77 331 5 6 8
13 9 18 1 17 75 157 83 157 4 0 8 5 8 11 0 13 60 90 101 129 54 52 111 100
119 100 5 0 15 6 22 14 18 17 81 51 91 48 4 -1 7 2 7 7 0 12 143 67 225 86 39
9 77 19 85 23 8 3 22 6 30 7 8 0 35 4 60 8 25 4 76 9 114 12 38 3 71 6 72 8 3
3 269 -2 329 -7z"/>
<path d="M15738 16795 c-1 -1 -43 -6 -93 -9 -101 -7 -169 -14 -203 -22 -24 -5
-109 -16 -129 -17 -7 0 -13 -3 -13 -6 0 -3 -10 -6 -22 -7 -13 0 -39 -4 -58 -9
-19 -4 -42 -8 -50 -9 -9 -1 -21 -5 -28 -10 -6 -4 -12 -5 -12 -2 0 3 -18 -1
-40 -9 -22 -8 -42 -14 -45 -15 -3 0 -6 0 -7 -1 -2 0 -10 -2 -18 -4 -25 -4
-228 -75 -268 -93 -20 -9 -39 -16 -42 -16 -9 -2 -185 -90 -190 -95 -7 -8 -41
-30 -60 -38 -20 -9 -136 -87 -154 -105 -8 -7 -29 -24 -46 -38 -87 -66 -219
-214 -294 -330 -27 -41 -56 -86 -65 -100 -9 -14 -28 -50 -41 -80 -14 -30 -27
-57 -31 -60 -3 -3 -8 -14 -12 -25 -3 -11 -19 -56 -36 -100 -34 -87 -79 -272
-95 -385 -22 -164 -28 -309 -25 -710 0 -8 0 -73 0 -145 0 -71 0 -137 0 -145 0
-28 0 -305 0 -325 0 -23 0 -174 0 -192 0 -11 0 -443 0 -475 0 -7 0 -71 0 -143
0 -71 0 -139 0 -150 0 -26 0 -176 0 -192 0 -22 0 -462 0 -478 0 -8 0 -44 0
-80 0 -36 0 -72 0 -80 0 -8 0 -116 0 -240 0 -124 0 -233 0 -242 0 -10 0 -216
0 -458 0 -429 2 -552 14 -665 19 -174 57 -336 113 -490 3 -8 4 -18 4 -22 -1
-5 2 -8 6 -8 5 0 9 -6 9 -14 0 -21 91 -202 141 -281 39 -61 104 -148 160 -217
126 -151 335 -307 547 -408 86 -41 305 -123 305 -115 0 2 15 -2 34 -10 18 -8
47 -17 62 -19 16 -3 44 -10 62 -15 18 -5 36 -10 40 -10 23 -2 79 -13 92 -18 8
-3 26 -7 40 -8 14 -1 25 -3 25 -4 0 -2 16 -4 35 -6 19 -1 69 -7 110 -13 41 -5
82 -10 90 -11 8 0 56 -4 105 -8 172 -15 721 -7 822 11 10 2 45 7 78 11 32 4
66 8 75 10 8 1 49 8 90 15 41 6 93 16 115 22 22 5 47 11 55 13 31 6 106 27
150 42 25 8 50 16 55 17 19 4 60 18 90 31 44 19 68 28 85 31 8 2 16 8 18 13 2
6 10 11 18 11 13 0 72 29 176 88 33 19 64 39 147 100 70 50 253 227 301 290
14 19 31 40 37 47 31 33 138 209 179 294 49 102 119 300 130 366 3 22 10 48
16 58 5 10 7 21 5 24 -3 2 -1 18 3 34 5 16 11 51 15 77 3 26 8 63 11 82 3 19
7 161 10 315 2 154 6 286 9 293 2 6 1 12 -3 12 -6 0 -7 153 -1 170 1 3 0 10
-1 15 -2 11 -1 457 1 465 1 3 0 10 -1 15 -5 24 -1 275 5 284 3 6 3 11 -2 11
-4 0 -8 216 -8 480 0 267 4 480 9 480 5 0 3 6 -3 13 -6 8 -8 17 -4 20 3 4 -2
7 -13 7 -137 1 -632 0 -639 -1 -5 -1 -14 -1 -20 0 -11 3 -605 2 -620 0 -5 -1
-14 -1 -20 0 -11 3 -605 2 -620 0 -5 -1 -13 -1 -18 0 -12 2 -109 3 -164 2
l-53 -1 0 -390 c0 -214 3 -391 8 -391 4 -1 243 -2 532 -3 l525 -1 2 -115 c1
-63 2 -128 3 -145 0 -16 0 -61 1 -100 0 -38 0 -74 0 -80 1 -10 0 -120 -1 -160
0 -11 0 -49 1 -85 0 -73 0 -73 -1 -154 -1 -32 1 -61 4 -64 3 -3 1 -11 -4 -17
-6 -8 -7 -22 -2 -36 4 -13 5 -44 2 -69 -3 -25 -2 -64 1 -87 3 -23 2 -46 -3
-51 -5 -5 -5 -20 1 -34 5 -14 8 -28 5 -31 -4 -3 -6 -212 -3 -277 3 -61 -12
-284 -20 -299 -6 -10 -8 -21 -5 -24 4 -3 0 -30 -7 -59 -7 -29 -14 -55 -14 -58
-7 -36 -19 -77 -24 -85 -3 -5 -6 -13 -7 -17 -1 -5 -3 -10 -4 -13 -1 -3 -3 -8
-4 -12 -5 -24 -70 -153 -77 -153 -5 0 -8 -3 -7 -7 2 -8 -22 -48 -52 -88 -37
-48 -159 -164 -200 -190 -98 -62 -231 -117 -339 -141 -97 -21 -186 -34 -248
-37 -40 -1 -73 -4 -73 -7 0 -8 -275 -4 -288 3 -6 4 -13 3 -17 -3 -4 -6 -12 -7
-18 -3 -7 4 -21 8 -32 9 -234 15 -509 114 -647 231 -46 40 -138 135 -138 144
0 4 -6 14 -13 21 -28 29 -102 165 -99 181 1 4 -2 7 -6 7 -5 0 -9 6 -10 13 0 6
-10 38 -21 70 -11 32 -23 71 -25 85 -2 15 -5 27 -6 27 -4 0 -12 48 -23 145
-10 81 -12 601 -11 2300 0 1207 4 2215 8 2240 3 25 9 58 12 73 3 16 7 38 9 50
11 68 86 282 105 297 3 3 18 25 32 50 44 75 143 184 208 230 19 13 44 32 54
42 11 10 29 21 40 24 12 4 23 10 26 13 4 6 76 43 90 46 3 1 12 5 20 8 40 17
100 35 100 30 0 -3 6 -1 13 5 6 5 26 13 42 16 41 9 72 15 93 20 174 39 590 36
752 -4 19 -5 48 -11 63 -14 31 -5 90 -23 122 -36 70 -28 171 -74 175 -80 3 -4
19 -14 35 -23 48 -25 169 -141 223 -215 42 -57 118 -186 123 -210 1 -4 5 -16
9 -28 18 -46 39 -124 33 -124 -3 0 -1 -6 5 -12 5 -7 13 -33 16 -58 3 -25 8
-56 11 -70 12 -55 16 -165 15 -353 -1 -82 1 -151 4 -154 3 -4 1 -12 -4 -18 -6
-7 -7 -22 -2 -35 4 -12 5 -43 2 -70 -3 -26 -3 -56 0 -66 4 -10 4 -32 1 -49 -4
-16 -4 -50 -1 -75 3 -25 3 -56 -1 -70 -14 -58 -42 -55 541 -54 612 2 573 1
565 15 -6 9 -9 135 -4 157 1 4 0 12 -1 17 -5 24 -1 275 5 284 3 6 3 11 -2 11
-4 0 -8 84 -9 188 0 169 -6 272 -19 342 -2 14 -6 41 -9 60 -8 60 -24 134 -36
164 -6 16 -9 31 -6 33 2 2 -5 28 -16 56 -10 29 -21 59 -23 67 -10 46 -120 288
-136 300 -3 3 -16 23 -27 46 -11 22 -28 46 -36 53 -9 8 -16 20 -16 27 0 8 -4
14 -10 14 -5 0 -10 6 -10 14 0 8 -3 16 -7 18 -5 2 -28 28 -53 58 -87 107 -251
262 -340 320 -12 8 -28 20 -34 26 -23 21 -291 164 -308 164 -3 0 -23 8 -44 17
-22 9 -43 18 -49 19 -5 1 -44 14 -85 28 -41 15 -77 26 -80 26 -3 0 -27 6 -55
14 -27 8 -63 17 -80 20 -16 3 -50 10 -75 15 -25 5 -65 12 -90 16 -25 3 -58 9
-75 12 -46 8 -106 15 -241 29 -56 6 -630 14 -636 9z"/>
<path d="M22938 16795 c-2 -2 -41 -6 -88 -9 -100 -7 -165 -13 -206 -20 -16 -3
-49 -8 -74 -11 -40 -5 -149 -25 -220 -41 -14 -3 -36 -7 -50 -10 -14 -2 -32 -7
-40 -10 -8 -3 -25 -8 -38 -10 -18 -4 -90 -26 -220 -69 -7 -3 -14 -4 -17 -5 -3
0 -20 -7 -38 -17 -17 -9 -34 -18 -37 -18 -3 0 -27 -11 -54 -23 -27 -12 -50
-22 -52 -22 -2 0 -38 -20 -80 -45 -41 -25 -77 -45 -80 -45 -2 0 -45 -30 -96
-67 -97 -71 -245 -212 -313 -298 -22 -27 -46 -56 -52 -63 -7 -7 -13 -17 -13
-21 0 -4 -8 -16 -17 -27 -60 -66 -205 -364 -228 -468 -3 -10 -9 -34 -15 -52
-6 -18 -13 -43 -15 -56 -3 -13 -7 -33 -10 -45 -3 -13 -7 -31 -9 -40 -6 -28
-19 -106 -22 -128 -1 -11 -6 -54 -11 -95 -10 -93 -11 -4469 0 -4565 4 -38 9
-77 12 -85 2 -8 7 -39 10 -69 4 -30 11 -65 16 -78 5 -13 7 -23 4 -23 -2 0 0
-12 5 -27 5 -16 18 -62 30 -103 32 -111 107 -290 153 -365 48 -79 120 -190
130 -200 7 -6 23 -26 37 -45 34 -44 197 -209 239 -240 19 -14 42 -32 51 -40
10 -8 26 -21 37 -27 10 -7 36 -25 58 -39 22 -15 87 -52 145 -82 58 -30 110
-57 115 -60 6 -4 15 -7 21 -8 6 -1 27 -9 47 -19 19 -9 41 -18 49 -19 7 -2 24
-7 38 -13 14 -6 52 -18 85 -28 33 -9 71 -21 85 -25 19 -7 108 -29 140 -35 3
-1 19 -4 35 -8 48 -11 84 -17 185 -32 225 -33 326 -39 630 -39 305 0 411 6
620 35 96 14 97 14 150 23 25 4 52 8 60 9 8 2 20 6 27 10 6 4 24 9 40 11 45 5
203 51 293 84 8 3 18 6 23 7 4 2 9 4 12 5 3 1 8 3 13 4 4 1 34 14 66 29 33 15
70 30 83 33 13 4 23 9 23 13 0 4 12 12 28 18 51 22 180 99 232 140 135 104
265 230 340 329 25 32 48 61 53 62 4 2 7 8 7 13 0 5 16 31 35 58 19 26 35 53
35 60 0 6 5 11 10 11 6 0 10 5 10 11 0 7 10 28 22 48 13 20 23 38 24 41 0 3 7
19 14 35 7 17 14 32 15 35 0 3 8 21 17 40 24 49 68 184 85 255 7 33 15 69 18
80 5 19 10 48 20 110 2 16 8 61 12 100 10 88 11 4477 1 4565 -15 136 -30 223
-54 304 -7 27 -11 52 -8 57 3 5 0 9 -5 9 -6 0 -11 8 -11 17 0 24 -80 236 -92
244 -5 3 -9 9 -9 13 1 12 -12 41 -31 69 -11 15 -17 27 -13 27 3 0 1 6 -4 13
-6 6 -39 55 -74 107 -102 152 -232 291 -376 400 -18 14 -45 34 -59 46 -119 91
-371 212 -572 273 -107 32 -187 54 -210 56 -8 1 -42 7 -75 15 -73 16 -77 17
-143 24 -29 3 -56 7 -60 10 -4 2 -45 7 -92 11 -47 5 -98 10 -115 12 -37 5
-643 12 -647 8z m477 -799 c53 -5 174 -23 215 -32 66 -14 147 -38 155 -45 5
-5 15 -9 21 -9 22 0 157 -67 214 -105 79 -54 191 -169 243 -251 39 -61 97
-173 97 -188 0 -2 5 -17 11 -33 6 -15 10 -29 10 -30 0 -2 5 -17 11 -35 5 -18
11 -42 13 -53 2 -11 8 -45 14 -75 6 -30 13 -86 16 -123 2 -37 7 -71 9 -75 3
-5 1 -14 -4 -22 -5 -9 -5 -19 2 -27 7 -9 7 -13 -1 -13 -7 0 -9 -5 -5 -11 6
-11 9 -131 4 -154 -1 -5 -1 -12 0 -15 6 -16 4 -140 -3 -140 -5 0 -5 -5 -1 -11
6 -11 9 -131 4 -154 -1 -5 -1 -12 0 -15 6 -16 4 -140 -3 -140 -5 0 -5 -5 -1
-11 9 -15 8 -434 -1 -448 -3 -6 -3 -11 2 -11 9 0 8 -162 -1 -186 -3 -8 -2 -14
2 -14 9 0 7 -54 -3 -69 -3 -6 -3 -11 2 -11 9 0 8 -124 -1 -147 -3 -7 -2 -13 2
-13 8 0 7 -203 -2 -225 -3 -8 -2 -15 2 -15 9 0 7 -54 -3 -69 -3 -6 -3 -11 2
-11 9 0 8 -124 -1 -147 -3 -7 -2 -13 2 -13 8 0 7 -203 -2 -225 -3 -8 -2 -15 2
-15 9 0 7 -54 -3 -69 -3 -6 -3 -11 2 -11 9 0 8 -124 -1 -147 -3 -7 -2 -13 2
-13 8 0 7 -203 -2 -225 -3 -8 -2 -15 2 -15 9 0 7 -54 -3 -69 -3 -6 -3 -11 2
-11 9 0 8 -124 -1 -147 -3 -7 -2 -13 2 -13 8 0 7 -203 -2 -225 -3 -8 -2 -15 2
-15 9 0 7 -54 -3 -69 -3 -6 -2 -11 2 -11 10 0 10 -47 0 -56 -4 -4 -4 -11 0
-17 9 -15 9 -137 0 -137 -5 0 -5 -5 -1 -11 6 -11 9 -131 4 -154 -1 -5 -1 -12
0 -15 6 -16 4 -140 -3 -140 -5 0 -5 -5 -1 -11 6 -11 9 -131 4 -154 -1 -5 -1
-13 0 -17 4 -16 1 -176 -4 -262 -7 -99 -10 -121 -32 -209 -8 -34 -17 -70 -19
-80 -15 -66 -100 -257 -114 -257 -3 0 -12 -12 -18 -28 -17 -38 -122 -151 -185
-199 -79 -60 -215 -130 -288 -149 -8 -2 -49 -13 -90 -24 -41 -11 -92 -23 -114
-25 -21 -3 -51 -7 -67 -10 -92 -16 -397 -26 -405 -13 -3 5 -13 4 -23 -2 -10
-5 -20 -7 -23 -5 -2 3 -31 7 -64 10 -32 3 -70 8 -84 10 -14 3 -42 8 -64 11
-21 3 -47 8 -57 10 -11 2 -29 6 -41 9 -88 19 -288 98 -296 118 -2 4 -9 7 -16
7 -7 0 -26 10 -43 23 -17 12 -41 29 -53 37 -36 24 -110 101 -153 159 -80 108
-151 270 -176 401 -6 30 -13 69 -16 85 -3 17 -8 53 -10 82 -1 28 -5 55 -7 60
-7 14 -1 4344 6 4432 4 47 9 88 11 92 3 3 7 24 11 45 3 22 17 75 31 119 97
307 303 514 615 619 42 14 87 27 100 30 13 2 44 9 70 15 64 15 143 24 205 25
29 1 53 3 53 6 0 6 255 3 335 -4z"/>
<path d="M4 16721 c-2 -2 -4 -1768 -4 -3923 0 -3127 3 -3918 13 -3919 15 -1
4064 -1 4095 0 l22 1 0 395 c0 217 -3 395 -7 396 -5 1 -672 2 -1483 4 -811 1
-1477 3 -1480 4 -7 2 -4 76 3 88 4 6 4 13 0 17 -6 5 -8 118 -3 141 1 6 1 15 0
20 -4 24 -2 133 3 142 4 6 4 13 0 16 -8 9 -7 423 2 436 3 6 3 11 -2 11 -9 0
-8 162 1 186 3 8 2 14 -2 14 -9 0 -8 42 1 57 4 7 4 14 0 16 -9 6 -7 131 1 154
3 7 2 13 -2 13 -8 0 -7 203 2 225 3 8 2 15 -2 15 -9 0 -8 42 1 57 4 7 4 14 0
16 -9 6 -7 131 1 154 3 7 2 13 -2 13 -8 0 -7 203 2 225 3 8 2 15 -2 15 -9 0
-8 42 1 57 4 7 4 14 0 16 -9 6 -7 131 1 154 3 7 2 13 -2 13 -8 0 -7 203 2 225
3 8 2 15 -2 15 -9 0 -8 42 1 57 4 7 4 14 0 16 -9 6 -7 131 1 154 3 7 2 13 -2
13 -8 0 -7 203 2 225 3 8 2 15 -2 15 -9 0 -8 42 1 57 4 7 4 14 -1 17 -9 5 -9
47 1 63 4 5 4 13 0 17 -8 8 -8 130 0 143 4 6 4 13 0 17 -6 5 -8 118 -3 141 1
6 1 15 0 20 -4 24 -2 133 3 142 4 6 4 13 0 17 -6 5 -8 118 -3 141 1 6 1 15 0
20 -4 24 -2 133 3 142 4 6 4 13 0 17 -6 5 -8 118 -3 141 1 6 1 15 0 20 -4 24
-2 133 3 142 4 6 4 13 0 16 -8 9 -7 423 2 436 3 6 3 11 -2 11 -9 0 -8 162 1
186 3 8 2 14 -2 14 -9 0 -8 42 1 57 4 7 4 14 0 16 -9 6 -7 131 1 154 3 7 2 13
-2 13 -8 0 -7 203 2 225 3 8 2 15 -2 15 -9 0 -8 42 1 57 4 7 4 14 0 16 -9 6
-7 131 1 154 3 7 2 13 -2 13 -8 0 -7 203 2 225 3 8 2 15 -2 15 -9 0 -8 42 1
57 4 7 4 14 0 16 -9 6 -7 131 1 154 3 7 2 13 -2 13 -8 0 -7 203 2 225 3 8 2
15 -2 15 -9 0 -8 42 1 57 4 7 4 14 0 16 -9 6 -7 131 1 154 3 7 2 13 -2 13 -8
0 -7 203 2 225 3 8 2 15 -2 15 -9 0 -8 42 1 57 4 7 4 14 -1 17 -6 4 -8 50 -2
66 5 12 -2 56 -10 64 -8 8 -1137 15 -1146 7z"/>
</g>
</svg>
